<svg xmlns="http://www.w3.org/2000/svg" width="360" height="223" viewBox="0 0 360 223" fill="none"><path d="M346.257 147.005C341.682 147.005 338.251 145.584 335.963 142.751C333.676 139.917 332.532 136.85 332.532 133.549C332.532 130.248 333.676 127.189 335.963 124.356C338.251 121.522 341.682 120.101 346.257 120.101C350.832 120.101 354.263 121.522 356.55 124.356C358.838 127.198 359.982 130.256 359.982 133.549C359.982 136.841 358.838 139.909 356.55 142.751C354.263 145.593 350.823 147.005 346.257 147.005Z" fill="#718570"></path><path d="M129.7 138.003C129.7 140.914 130.289 143.375 131.485 145.402C132.672 147.43 134.457 148.755 136.839 149.388V151.285H105.811V149.388C108.185 148.755 109.97 147.43 111.166 145.402C112.353 143.383 112.951 140.914 112.951 138.003V90.9618C112.951 87.1667 112.214 84.3247 110.75 82.4271C109.286 80.5295 107.267 78.9526 104.711 77.6875L129.422 67.6365L129.7 138.011V138.003Z" fill="#803F2E"></path><path d="M173.63 107.356C173.63 120.171 175.137 129.598 178.161 135.637C181.177 141.677 184.703 144.701 188.732 144.701C191.479 144.701 194.226 143.236 196.972 140.308C199.719 137.379 202.093 133.168 204.112 127.674L215.368 139.753C212.985 143.418 209.597 146.303 205.204 148.4C200.811 150.506 196.054 151.554 190.925 151.554C186.895 151.554 182.823 150.774 178.707 149.223C174.592 147.673 170.97 145.151 167.859 141.668C164.748 138.193 162.184 133.618 160.174 127.943C158.155 122.268 157.158 115.405 157.158 107.347V37.0676H142.333V30.2051H146.18C149.291 30.2051 152.081 29.2867 154.559 27.4584C157.028 25.6302 159.229 23.2474 161.144 20.3187C163.068 17.3901 164.8 14.1408 166.36 10.5709C167.911 7.00108 169.427 3.48321 170.892 0H173.638V30.2051H194.503V37.0676H173.638V107.356H173.63Z" fill="#803F2E"></path><path d="M318.599 136.729C316.034 134.901 314.024 132.613 312.56 129.867C311.095 127.12 310.368 123.004 310.368 117.511V78.251C310.368 68.9191 309.042 61.1382 306.382 54.9169C303.73 48.6957 300.299 43.7048 296.088 39.953C291.877 36.2012 287.025 33.5498 281.54 31.9901C276.047 30.4391 270.553 29.7546 265.068 29.9279C260.675 29.9279 256.421 30.3872 252.305 31.3056C248.19 32.2241 244.386 33.4111 240.911 34.8755C237.428 36.3398 234.361 38.0294 231.718 39.953C229.058 41.8766 227.091 43.8434 225.817 45.8536C222.889 50.4286 222.291 54.0938 224.032 56.8318C225.765 59.5785 228.287 60.9476 231.588 60.9476C233.962 60.9476 236.432 60.0811 238.996 58.3395C241.561 56.6065 243.667 53.9032 245.313 50.238C247.141 46.2176 249.845 43.0116 253.414 40.6288C256.984 38.2547 260.875 36.877 265.086 36.5131C268.56 36.3311 271.992 36.9203 275.379 38.298C278.767 39.6671 281.835 41.9112 284.573 45.0218C287.319 48.1325 289.555 52.3002 291.297 57.5163C293.038 62.7325 294 69.0924 294.182 76.596C291.071 76.2321 288.091 75.9548 285.257 75.7729C282.415 75.5909 279.72 75.4956 277.156 75.4956C263.604 75.4956 252.487 77.3758 243.797 81.1277C235.106 84.8795 228.555 89.5931 224.162 95.2684C219.769 100.944 217.343 107.122 216.884 113.802C216.425 120.483 217.612 126.661 220.454 132.336C223.287 138.011 227.594 142.725 233.356 146.477C239.118 150.229 245.937 152.109 253.813 152.109C259.67 152.109 265.935 150.87 272.624 148.4C279.305 145.931 286.488 141.945 294.173 136.452V151.277L318.608 136.729H318.599ZM270.423 135.958H270.406C265.562 138.887 259.67 140.221 253.501 139.224C242.012 137.37 233.174 127.44 232.68 115.812C232.463 110.735 233.746 106.004 236.102 102.018C239.135 96.8888 243.953 92.981 249.637 91.0747C255.633 88.6919 265.796 87.3316 283.056 89.3678C283.056 89.3678 289.538 124.555 270.423 135.958Z" fill="#803F2E"></path><path d="M107.873 184.342C107.501 179.767 105.855 175.555 102.934 171.708C100.006 167.861 95.6128 164.933 89.7555 162.922C85.3625 161.458 79.8691 160.358 73.2839 159.63C66.6987 158.893 60.2435 158.165 53.9269 157.438C47.6104 156.701 42.0736 155.739 37.3167 154.552C32.5511 153.365 29.7178 151.58 28.808 149.197C28.2621 147.369 28.9466 145.68 30.8702 144.12C30.9482 144.059 31.0348 143.999 31.1128 143.938C37.8106 147.932 45.6348 150.237 54.0049 150.237C78.708 150.237 98.7321 130.213 98.7321 105.51C98.7321 80.807 78.708 60.7829 54.0049 60.7829C29.3019 60.7829 9.26907 80.8157 9.26907 105.519C9.26907 119.339 15.5423 131.703 25.3941 139.9C23.7651 140.983 22.2748 142.153 20.9751 143.427C16.3048 148.002 15.2477 153.59 17.8125 160.176C19.6407 164.569 23.3059 167.679 28.7906 169.508C34.2841 171.336 40.41 172.575 47.1858 173.216C53.9529 173.857 60.5901 174.36 67.0886 174.724C73.5872 175.088 78.76 176.101 82.5984 177.748C87.7193 179.94 90.8386 183.328 91.9303 187.903C93.0307 192.478 92.2942 196.966 89.7295 201.359C87.1647 205.752 82.9537 209.504 77.0964 212.614C71.239 215.725 64.004 216.825 55.4086 215.907C45.1583 214.989 36.8315 211.965 30.4196 206.844C24.0077 201.714 19.71 194.488 17.5179 185.156C16.5994 181.309 15.2304 178.571 13.4021 176.916C11.5739 175.27 9.65032 174.446 7.64011 174.446C5.43927 174.446 3.52437 175.452 1.86942 177.462C0.223123 179.472 -0.322753 182.219 0.223123 185.702C1.14158 191.005 3.2471 195.857 6.53969 200.25C9.83228 204.643 13.9567 208.438 18.8956 211.644C23.8344 214.841 29.3279 217.449 35.3672 219.468C41.4065 221.478 47.6277 222.579 54.0396 222.761C63.0075 223.125 70.8751 222.215 77.6509 220.014C84.418 217.822 90.0934 214.798 94.677 210.951C99.252 207.104 102.683 202.849 104.971 198.188C107.258 193.517 108.22 188.899 107.856 184.324L107.873 184.342ZM29.3365 98.2404C31.832 92.8336 36.2336 88.4579 41.701 85.9885C47.4198 83.0078 57.4015 80.6337 74.7742 80.9196C74.7742 80.9196 84.7733 115.275 66.9067 128.55C66.9067 128.55 66.898 128.549 66.8893 128.558C62.3664 131.963 56.639 133.878 50.4004 133.514C38.781 132.83 28.9813 123.836 27.3176 112.321C26.5898 107.286 27.387 102.46 29.3365 98.249V98.2404Z" fill="#803F2E"></path><path d="M32.3078 25.3001C33.734 25.3001 34.9876 25.5876 36.0688 26.1627C37.1499 26.7148 38.001 27.4394 38.6221 28.3365V25.6106H43.4871V44.8639C43.4871 46.6351 43.1306 48.2108 42.4175 49.5909C41.7044 50.9941 40.6348 52.0982 39.2086 52.9033C37.7825 53.7314 36.0573 54.1454 34.033 54.1454C31.3187 54.1454 29.0874 53.5129 27.3392 52.2477C25.614 50.9826 24.6364 49.2574 24.4064 47.0721H29.2025C29.4555 47.9462 29.9961 48.6363 30.8242 49.1424C31.6752 49.6714 32.6989 49.936 33.895 49.936C35.2982 49.936 36.4368 49.5104 37.3109 48.6593C38.185 47.8312 38.6221 46.5661 38.6221 44.8639V41.8965C38.001 42.7936 37.1384 43.5412 36.0343 44.1393C34.9531 44.7374 33.711 45.0364 32.3078 45.0364C30.6976 45.0364 29.2255 44.6223 27.8913 43.7942C26.5572 42.9662 25.499 41.8045 24.7169 40.3093C23.9579 38.7912 23.5783 37.0545 23.5783 35.0992C23.5783 33.167 23.9579 31.4533 24.7169 29.9581C25.499 28.463 26.5457 27.3128 27.8568 26.5077C29.191 25.7027 30.6746 25.3001 32.3078 25.3001ZM38.6221 35.1682C38.6221 33.9951 38.392 32.9945 37.932 32.1664C37.4719 31.3153 36.8508 30.6712 36.0688 30.2342C35.2867 29.7741 34.4471 29.5441 33.55 29.5441C32.6529 29.5441 31.8248 29.7626 31.0657 30.1997C30.3066 30.6367 29.6855 31.2808 29.2025 32.1319C28.7424 32.96 28.5124 33.9491 28.5124 35.0992C28.5124 36.2494 28.7424 37.2615 29.2025 38.1356C29.6855 38.9867 30.3066 39.6423 31.0657 40.1023C31.8478 40.5624 32.6759 40.7924 33.55 40.7924C34.4471 40.7924 35.2867 40.5739 36.0688 40.1368C36.8508 39.6768 37.4719 39.0327 37.932 38.2046C38.392 37.3535 38.6221 36.3414 38.6221 35.1682Z" fill="#718570"></path><path d="M53.0356 28.578C53.6566 27.5659 54.4617 26.7723 55.4508 26.1972C56.463 25.6221 57.6131 25.3346 58.9012 25.3346V30.4067H57.6246C56.1064 30.4067 54.9563 30.7632 54.1742 31.4763C53.4151 32.1894 53.0356 33.4315 53.0356 35.2028V44.7259H48.205V25.6106H53.0356V28.578Z" fill="#718570"></path><path d="M80.2005 25.6106V44.7259H75.3354V42.3106C74.7143 43.1387 73.8977 43.7942 72.8856 44.2773C71.8965 44.7374 70.8154 44.9674 69.6422 44.9674C68.1471 44.9674 66.8244 44.6568 65.6743 44.0358C64.5241 43.3917 63.6155 42.4601 62.9485 41.241C62.3044 39.9988 61.9823 38.5266 61.9823 36.8244V25.6106H66.8129V36.1344C66.8129 37.6525 67.1924 38.8257 67.9515 39.6538C68.7106 40.4589 69.7457 40.8614 71.0569 40.8614C72.3911 40.8614 73.4377 40.4589 74.1968 39.6538C74.9558 38.8257 75.3354 37.6525 75.3354 36.1344V25.6106H80.2005Z" fill="#718570"></path><path d="M89.7971 28.371C90.4182 27.4969 91.2693 26.7723 92.3504 26.1972C93.4546 25.5991 94.7082 25.3001 96.1114 25.3001C97.7446 25.3001 99.2167 25.7027 100.528 26.5077C101.862 27.3128 102.909 28.463 103.668 29.9581C104.45 31.4303 104.841 33.144 104.841 35.0992C104.841 37.0545 104.45 38.7912 103.668 40.3093C102.909 41.8045 101.862 42.9662 100.528 43.7942C99.2167 44.6223 97.7446 45.0364 96.1114 45.0364C94.7082 45.0364 93.4661 44.7489 92.3849 44.1738C91.3268 43.5987 90.4642 42.8741 89.7971 42V53.8349H84.9666V25.6106H89.7971V28.371ZM99.9068 35.0992C99.9068 33.9491 99.6653 32.96 99.1822 32.1319C98.7222 31.2808 98.1011 30.6367 97.319 30.1997C96.5599 29.7626 95.7318 29.5441 94.8347 29.5441C93.9606 29.5441 93.1325 29.7741 92.3504 30.2342C91.5914 30.6712 90.9703 31.3153 90.4872 32.1664C90.0272 33.0175 89.7971 34.0181 89.7971 35.1682C89.7971 36.3184 90.0272 37.319 90.4872 38.1701C90.9703 39.0212 91.5914 39.6768 92.3504 40.1368C93.1325 40.5739 93.9606 40.7924 94.8347 40.7924C95.7318 40.7924 96.5599 40.5624 97.319 40.1023C98.1011 39.6423 98.7222 38.9867 99.1822 38.1356C99.6653 37.2845 99.9068 36.2724 99.9068 35.0992Z" fill="#718570"></path><path d="M116.839 45.0364C114.999 45.0364 113.343 44.6338 111.871 43.8288C110.398 43.0007 109.237 41.839 108.386 40.3438C107.558 38.8487 107.143 37.1235 107.143 35.1682C107.143 33.213 107.569 31.4878 108.42 29.9926C109.294 28.4975 110.479 27.3473 111.974 26.5422C113.469 25.7142 115.137 25.3001 116.977 25.3001C118.817 25.3001 120.485 25.7142 121.98 26.5422C123.475 27.3473 124.649 28.4975 125.5 29.9926C126.374 31.4878 126.811 33.213 126.811 35.1682C126.811 37.1235 126.362 38.8487 125.465 40.3438C124.591 41.839 123.395 43.0007 121.877 43.8288C120.382 44.6338 118.702 45.0364 116.839 45.0364ZM116.839 40.8269C117.713 40.8269 118.53 40.6199 119.289 40.2058C120.071 39.7688 120.692 39.1247 121.152 38.2736C121.612 37.4225 121.842 36.3874 121.842 35.1682C121.842 33.351 121.359 31.9594 120.393 30.9933C119.45 30.0042 118.288 29.5096 116.908 29.5096C115.528 29.5096 114.366 30.0042 113.423 30.9933C112.503 31.9594 112.043 33.351 112.043 35.1682C112.043 36.9855 112.492 38.3886 113.389 39.3777C114.309 40.3438 115.459 40.8269 116.839 40.8269Z" fill="#718570"></path></svg>